<svg width="414" height="793" viewBox="0 0 414 793" fill="none" xmlns="http://www.w3.org/2000/svg">
<path opacity="0.5" d="M389.309 7.4311C360.483 27.5812 336.291 53.6543 318.352 83.9064C300.973 113.263 290.763 153.658 312.883 179.632C332.554 203.044 367.516 203.607 398.073 204.728C440.872 206.367 486.083 214.1 518.097 242.574C550.111 271.049 561.333 325.935 531.488 356.906C505.593 383.694 463.275 381.792 425.939 380.679C388.604 379.567 344.607 384.275 326.274 416.536C316.557 433.713 316.809 455.125 322.357 474.074C335.632 519.563 386.483 555.389 431.091 539.419C444.925 534.448 458.022 523.472 459.756 508.807C462.658 484.35 432.595 467.899 408.076 470.675C377.476 474.197 350.738 495.946 335.952 523.087C321.166 550.229 317.003 582.032 317.946 612.904C320.142 677.558 343.18 739.77 383.623 790.26" stroke="white" stroke-width="4.63276" stroke-linecap="round" stroke-linejoin="round" stroke-dasharray="4.59 12.28"/>
<path d="M374.653 419.987C371.152 420.332 369.004 418.75 367.328 415.322C361.778 403.936 357.578 391.893 353.221 380.022C354.543 381.249 356.519 381.154 358.526 380.605L358.554 380.71C358.526 380.714 358.499 380.724 358.474 380.74C358.45 380.755 358.429 380.776 358.413 380.8C358.397 380.824 358.386 380.852 358.381 380.88C358.376 380.909 358.378 380.939 358.385 380.967C361.195 394.83 367.129 408.154 374.653 419.987Z" fill="#6AA742"/>
<path d="M387.686 368.045C393.215 381.022 397.63 394.438 402.613 407.67C397.388 411.342 391.755 414.372 385.834 416.694C382.595 418.014 379.255 419.056 375.85 419.807L375.767 419.82C368.195 407.603 362.961 394.706 358.879 380.894C358.86 380.836 358.822 380.787 358.77 380.756C358.718 380.724 358.657 380.713 358.597 380.723L358.568 380.618C360.964 379.955 363.434 378.629 365.045 377.992C372.679 374.933 380.226 371.618 387.686 368.045ZM398.338 406.454C398.472 406.382 398.574 406.26 398.621 406.114C398.669 405.968 398.658 405.809 398.591 405.673L395.467 399.18C395.394 399.044 395.273 398.942 395.127 398.895C394.982 398.848 394.824 398.859 394.686 398.927C388.996 401.959 382.785 406.309 376.451 407.719C376.361 407.736 376.276 407.776 376.204 407.835C376.133 407.895 376.077 407.972 376.043 408.059L375.996 408.011C375.77 407.714 375.369 408.08 375.564 408.375C376.819 410.315 377.82 412.414 378.541 414.621C378.601 414.739 378.705 414.827 378.83 414.868C378.954 414.908 379.091 414.897 379.208 414.837C385.637 412.163 391.98 409.27 398.338 406.454ZM398.929 409.306C399.278 409.1 399.021 408.537 398.665 408.741C397.695 409.314 396.713 409.923 395.778 410.532C395.511 410.701 395.702 411.13 395.978 410.98C396.972 410.431 397.964 409.889 398.929 409.306ZM398.193 408.429C398.265 408.393 398.32 408.329 398.347 408.252C398.373 408.175 398.368 408.091 398.334 408.019C398.299 407.946 398.237 407.891 398.161 407.865C398.086 407.839 398.003 407.844 397.931 407.88C396.444 408.543 395 409.304 393.608 410.157C393.301 410.329 393.523 410.808 393.839 410.655C395.335 410.007 396.789 409.263 398.193 408.429ZM366.568 381.673C366.951 381.51 366.675 380.981 366.306 381.101C364.811 381.6 363.349 382.261 361.896 382.87C361.625 382.982 361.817 383.356 362.075 383.263C363.575 382.75 365.106 382.287 366.568 381.673ZM365.139 380.004C365.552 379.818 365.259 379.244 364.851 379.391C363.124 380.047 361.45 380.88 359.754 381.633C359.487 381.755 359.687 382.155 359.957 382.05C361.681 381.378 363.446 380.775 365.139 380.004Z" fill="#6AA742"/>
<path d="M395.692 402.289C396.288 403.089 397.062 404.554 396.717 405.45C396.149 406.96 392.536 407.772 391.05 408.41C388.779 409.416 386.508 410.426 384.24 411.439C383.151 412.048 382.01 412.554 380.832 412.949C379.3 413.292 379.475 413.309 378.56 411.966C377.871 410.944 377.317 409.893 376.661 408.866C380.568 408.141 383.983 405.978 387.453 404.105C389.245 403.151 391.312 401.47 393.249 400.987C394.984 400.574 394.787 401.085 395.692 402.289ZM392.784 405.527C393.28 405.304 392.916 404.539 392.427 404.764C388.535 406.509 384.41 407.954 380.659 409.968C380.489 410.057 380.535 410.352 380.766 410.315C384.873 409.287 388.913 407.279 392.784 405.527Z" fill="#F5F5F5"/>
<path d="M381.106 364.956C381.373 367.16 383.424 367.807 385.372 367.775C380.949 369.851 376.514 371.892 372.03 373.844C369.532 374.916 367.028 375.97 364.517 377.006C361.81 378.095 356.775 381.092 353.749 379.433C353.717 379.394 353.676 379.364 353.628 379.346L353.529 379.314C353.388 379.223 353.252 379.123 353.124 379.015C352.204 377.806 356.87 375.561 357 375.475C358.249 374.817 359.512 374.187 360.759 373.56C363.076 372.416 365.402 371.339 367.787 370.321C372.185 368.42 376.687 366.777 381.106 364.956ZM381.551 368.016C381.649 367.97 381.724 367.885 381.761 367.783C381.798 367.68 381.793 367.567 381.748 367.469C381.703 367.37 381.621 367.295 381.52 367.258C381.419 367.222 381.308 367.228 381.211 367.275C373.62 370.699 366.052 374.226 358.495 377.741C358.262 377.857 358.438 378.21 358.679 378.12C366.473 375.174 374.109 371.801 381.551 368.016ZM379.752 367.562C380.156 367.381 379.863 366.759 379.466 366.942C371.811 370.521 364.071 373.873 356.389 377.363C356.214 377.442 356.341 377.683 356.503 377.616C364.362 374.55 372.082 371.088 379.752 367.562Z" fill="#F5F5F5"/>
<path d="M403.595 407.157C404.035 407.204 404.382 407.779 403.936 408.067C397.737 412.499 390.968 416.039 383.825 418.585C379.589 420.058 372.907 423.225 369.019 419.697C367.105 417.975 366.136 415.368 365.135 413.054C363.481 409.242 361.844 405.412 360.223 401.563C357.251 394.36 354.278 387.06 352.285 379.495C352.041 379.268 351.87 378.972 351.793 378.644C351.717 378.316 351.738 377.971 351.854 377.653C352.478 375.41 356.646 374.122 358.324 373.275C366.015 369.372 374.145 365.611 382.606 363.715C382.669 363.706 382.733 363.72 382.787 363.754C382.841 363.789 382.88 363.842 382.899 363.903C382.918 363.965 382.914 364.032 382.889 364.091C382.864 364.151 382.818 364.2 382.761 364.229C382.502 364.353 382.228 364.448 381.963 364.562C381.987 364.607 382.003 364.655 382.011 364.705C382.352 367.213 385.197 366.983 387.025 366.96L387.497 366.737C387.614 366.685 387.744 366.671 387.869 366.697C387.993 366.723 388.106 366.788 388.192 366.882C388.278 366.977 388.332 367.096 388.348 367.225C388.363 367.353 388.339 367.483 388.278 367.597L388.328 367.614C394.877 379.962 399.092 393.968 403.595 407.157ZM402.651 407.65C397.66 394.44 393.225 381.017 387.724 368.025C380.287 371.606 372.728 374.918 365.047 377.961C363.436 378.598 360.966 379.924 358.57 380.587C356.557 381.134 354.585 381.215 353.266 380.004C357.623 391.875 361.816 403.94 367.373 415.305C369.049 418.732 371.197 420.314 374.698 419.969C367.174 408.136 361.233 394.834 358.437 380.951C358.43 380.923 358.428 380.894 358.433 380.865C358.438 380.836 358.449 380.809 358.465 380.785C358.481 380.76 358.502 380.74 358.526 380.724C358.551 380.709 358.578 380.698 358.606 380.694C358.666 380.684 358.727 380.695 358.779 380.727C358.831 380.758 358.869 380.807 358.888 380.866C363.041 394.7 368.239 407.586 375.812 419.802L375.894 419.789C379.3 419.038 382.64 417.997 385.879 416.677C391.783 414.357 397.401 411.333 402.613 407.67L402.651 407.65ZM385.41 367.756C383.461 367.788 381.411 367.14 381.144 364.936C376.724 366.758 372.231 368.372 367.848 370.277C365.477 371.3 363.137 372.372 360.82 373.516C359.559 374.139 358.296 374.768 357.061 375.432C356.939 375.496 352.273 377.741 353.185 378.971C353.313 379.08 353.449 379.179 353.59 379.27L353.69 379.302C353.737 379.32 353.778 379.35 353.81 379.39C356.836 381.048 361.899 378.061 364.578 376.962C367.083 375.93 369.587 374.876 372.091 373.8C376.514 371.892 380.949 369.852 385.372 367.775L385.41 367.756Z" fill="#222221"/>
<path d="M398.605 405.678C398.672 405.814 398.683 405.973 398.636 406.119C398.588 406.265 398.486 406.387 398.352 406.459C391.995 409.275 385.659 412.17 379.23 414.82C379.112 414.88 378.976 414.891 378.851 414.851C378.726 414.811 378.622 414.722 378.562 414.604C377.841 412.397 376.84 410.298 375.585 408.358C375.39 408.063 375.798 407.7 376.017 407.994C376.017 407.994 376.048 408.044 376.071 408.068C376.106 407.981 376.161 407.904 376.233 407.845C376.304 407.785 376.389 407.745 376.48 407.729C382.813 406.319 388.996 401.959 394.714 398.936C394.852 398.868 395.01 398.857 395.156 398.904C395.301 398.951 395.423 399.053 395.495 399.189L398.605 405.678ZM396.717 405.45C397.062 404.555 396.288 403.09 395.692 402.289C394.787 401.085 394.984 400.574 393.266 401.008C391.328 401.492 389.262 403.172 387.47 404.127C383.999 406 380.584 408.162 376.677 408.887C377.338 409.9 377.883 410.98 378.577 411.988C379.497 413.316 379.317 413.314 380.848 412.971C382.027 412.575 383.168 412.07 384.256 411.461C386.525 410.448 388.795 409.438 391.067 408.431C392.55 407.777 396.149 406.96 396.717 405.45Z" fill="#222221"/>
<path d="M398.664 408.742C399.021 408.537 399.278 409.1 398.929 409.307C397.956 409.887 396.993 410.438 395.978 410.98C395.702 411.131 395.511 410.701 395.778 410.532C396.734 409.93 397.694 409.314 398.664 408.742Z" fill="#222221"/>
<path d="M397.919 407.917C397.991 407.881 398.074 407.875 398.15 407.901C398.225 407.927 398.287 407.982 398.322 408.055C398.356 408.128 398.361 408.212 398.335 408.288C398.308 408.365 398.253 408.429 398.181 408.465C396.777 409.3 395.323 410.043 393.827 410.691C393.511 410.845 393.289 410.365 393.596 410.193C394.988 409.34 396.432 408.579 397.919 407.917Z" fill="#222221"/>
<path d="M392.427 404.764C392.916 404.539 393.28 405.304 392.784 405.527C388.913 407.279 384.873 409.287 380.733 410.344C380.53 410.39 380.456 410.086 380.626 409.997C384.41 407.954 388.544 406.48 392.427 404.764Z" fill="#222221"/>
<path d="M381.21 367.275C381.308 367.228 381.419 367.222 381.52 367.259C381.621 367.295 381.703 367.371 381.748 367.469C381.793 367.567 381.798 367.68 381.761 367.783C381.724 367.886 381.648 367.97 381.551 368.017C374.104 371.8 366.464 375.171 358.664 378.116C358.423 378.206 358.247 377.853 358.481 377.737C366.052 374.226 373.62 370.699 381.21 367.275Z" fill="#222221"/>
<path d="M379.466 366.942C379.863 366.759 380.156 367.381 379.752 367.562C372.082 371.088 364.357 374.565 356.503 377.616C356.34 377.683 356.214 377.443 356.389 377.363C364.071 373.873 371.81 370.521 379.466 366.942Z" fill="#222221"/>
<path d="M366.306 381.101C366.674 380.98 366.958 381.512 366.568 381.673C365.106 382.287 363.575 382.75 362.075 383.263C361.817 383.356 361.624 382.982 361.896 382.87C363.349 382.261 364.81 381.6 366.306 381.101Z" fill="#222221"/>
<path d="M364.858 379.394C365.269 379.239 365.559 379.821 365.146 380.007C363.453 380.777 361.688 381.38 359.964 382.053C359.694 382.158 359.494 381.757 359.761 381.636C361.45 380.88 363.124 380.047 364.858 379.394Z" fill="#222221"/>
<path d="M419.834 665.317C419.595 666.688 418.591 667.155 417.183 667.255C414.996 667.38 412.536 666.638 410.356 666.321L404.449 665.48C404.799 669.915 403.158 674.093 400.351 678.132C402.402 678.77 402.137 682.233 401.575 683.863C400.573 686.843 397.783 687.712 394.961 688.259C394.838 688.272 394.716 688.235 394.621 688.158C394.525 688.081 394.464 687.968 394.451 687.846C394.223 685.168 393.199 681.144 395.357 679.006C395.872 678.493 396.506 678.114 397.202 677.904C397.898 677.694 398.635 677.659 399.347 677.802C399.35 677.699 399.379 677.599 399.432 677.511C402.014 673.422 403.485 669.419 403.108 665.322C401.981 665.157 400.794 665.03 399.577 664.906C399.631 664.999 399.657 665.105 399.653 665.213C399.648 665.32 399.613 665.424 399.551 665.511C398.161 667.485 396.782 669.467 395.403 671.45C394.528 672.694 393.647 674.624 392.464 675.581C390.904 676.839 389.278 676.213 387.4 675.782C381.323 674.381 375.535 671.937 370.294 668.558C365.19 665.275 358.598 660.295 355.772 654.716C354.971 653.119 355.405 652.418 356.425 651.008C358.735 647.702 361.21 644.515 363.84 641.459L362.977 640.418C361.473 638.568 359.97 636.719 358.467 634.869C357.467 633.622 355.769 632.057 355.157 630.566C354.672 629.386 354.709 628.392 355.731 627.798C355.479 627.594 355.636 627.096 355.976 627.191C362.602 629.005 369.168 630.94 375.886 632.383C381.378 633.572 387.446 634.062 392.389 636.958C397.93 640.205 401.56 646.36 406.208 650.685C411.001 655.147 416.086 659.238 420.264 664.33C420.324 664.419 420.36 664.522 420.369 664.628C420.379 664.735 420.361 664.843 420.318 664.941C420.275 665.039 420.209 665.125 420.124 665.191C420.039 665.257 419.939 665.3 419.834 665.317ZM395.374 687.21C397.176 686.859 398.964 686.383 400.078 684.774C400.874 683.628 401.892 679.751 399.99 678.892C400.47 679.675 400.695 680.587 400.632 681.503C400.569 682.419 400.223 683.293 399.641 684.003C399.585 684.054 399.513 684.083 399.437 684.085C399.362 684.087 399.288 684.062 399.229 684.015C399.17 683.967 399.13 683.9 399.117 683.826C399.103 683.751 399.117 683.674 399.155 683.609C399.593 683.016 399.873 682.321 399.968 681.59C400.062 680.859 399.969 680.116 399.696 679.431C399.616 680.653 399.191 681.827 398.47 682.817C398.196 683.154 397.735 682.752 397.96 682.404C398.637 681.361 399.065 680.177 399.21 678.943C398.511 679.844 397.893 680.806 397.365 681.817C397.323 681.887 397.258 681.939 397.182 681.964C397.105 681.988 397.022 681.984 396.948 681.952C396.874 681.92 396.814 681.862 396.779 681.789C396.745 681.716 396.739 681.633 396.761 681.556C397.217 680.451 397.868 679.437 398.683 678.563C397.844 678.599 397.042 678.925 396.416 679.485C395.789 680.046 395.376 680.806 395.246 681.636C394.877 683.366 395.215 685.441 395.361 687.227L395.374 687.21ZM404.353 664.406C409.757 665.305 417.304 666.368 418.62 665.235C413.71 664.729 408.835 663.914 404.027 662.796C404.144 663.365 404.252 663.898 404.353 664.406ZM418.185 663.877C413.984 659.071 409.002 655.11 404.392 650.692C399.879 646.363 396.394 640.287 390.706 637.433C385.312 634.73 378.831 634.305 373.037 632.938C367.936 631.772 362.903 630.324 357.962 628.601C361.853 632.948 365.668 637.366 369.51 641.749L376.225 649.408C378.194 651.658 380.076 654.425 382.491 656.229C385.296 658.36 389.566 658.625 392.923 659.278L402.018 661.016L402.151 661.039C401.769 660.079 401.309 659.152 400.776 658.266C397.4 652.629 391.645 649.085 386.385 645.421C386.065 645.162 386.403 644.592 386.769 644.784C393.215 648.528 399.992 653.033 403.108 660.127C403.285 660.517 403.425 660.905 403.583 661.308C408.384 662.297 413.269 663.44 418.166 663.9L418.185 663.877ZM403.007 664.206C402.912 663.642 402.786 663.084 402.627 662.534C401.418 662.284 400.192 662.03 399 661.804C395.762 661.183 392.502 660.558 389.22 659.928C386.99 659.486 384.632 659.168 382.643 657.973C380.428 656.634 378.744 654.302 377.066 652.384L370.357 644.729C365.622 639.329 360.839 633.965 356.176 628.5C355.366 630.308 361.193 636.489 362.064 637.555C363.87 639.771 365.698 641.973 367.548 644.16C371.616 649.001 375.668 654.929 380.693 658.811C385.719 662.694 393.004 662.652 398.964 663.51C399.509 663.61 401.018 663.865 403.007 664.206ZM386.404 674.273C390.052 675.2 391.421 675.02 393.66 671.858C395.337 669.5 397.013 667.142 398.69 664.785C392.42 664.17 385.413 663.621 380.506 660.119C377.076 657.672 374.445 653.957 371.72 650.792C369.203 647.861 366.721 644.903 364.275 641.916C362.674 644.477 360.827 646.886 359.033 649.31C358.046 650.633 356.847 651.634 356.899 653.325C356.944 654.86 357.85 655.66 358.833 656.788C365.968 665.353 375.62 671.453 386.419 674.219L386.404 674.273Z" fill="#222221"/>
<path d="M400.064 684.791C398.95 686.4 397.162 686.876 395.36 687.227C395.229 685.424 394.889 683.375 395.22 681.644C395.35 680.813 395.764 680.053 396.39 679.493C397.017 678.933 397.818 678.607 398.658 678.571C397.843 679.445 397.192 680.459 396.736 681.563C396.713 681.641 396.72 681.724 396.754 681.797C396.788 681.87 396.848 681.928 396.922 681.96C396.996 681.992 397.08 681.996 397.156 681.971C397.233 681.946 397.298 681.894 397.339 681.825C397.868 680.814 398.485 679.851 399.185 678.95C399.039 680.185 398.612 681.369 397.935 682.412C397.71 682.76 398.193 683.181 398.444 682.824C399.166 681.835 399.591 680.661 399.671 679.439C399.944 680.123 400.037 680.867 399.942 681.598C399.848 682.329 399.568 683.024 399.129 683.617C399.091 683.682 399.078 683.759 399.091 683.833C399.105 683.908 399.145 683.975 399.204 684.022C399.262 684.07 399.336 684.095 399.412 684.093C399.488 684.091 399.56 684.062 399.616 684.011C400.198 683.301 400.544 682.427 400.607 681.511C400.669 680.595 400.445 679.682 399.965 678.9C401.878 679.767 400.86 683.645 400.064 684.791Z" fill="#6F6F6F"/>
<path d="M418.602 665.258C417.291 666.385 409.738 665.328 404.334 664.429C404.252 663.898 404.163 663.342 404.008 662.818C408.817 663.937 413.691 664.751 418.602 665.258Z" fill="#7E5279"/>
<path d="M412.831 660.961C413.255 660.964 413.348 661.598 412.906 661.629C411.353 661.729 409.794 661.574 408.291 661.17C407.935 661.071 407.994 660.531 408.377 660.585C409.85 660.821 411.339 660.947 412.831 660.961Z" fill="#222221"/>
<path d="M412.781 659.736C413.21 659.78 413.1 660.431 412.682 660.385C411.803 660.299 410.925 660.213 410.048 660.043C409.776 659.993 409.758 659.524 410.063 659.534C410.971 659.549 411.886 659.636 412.781 659.736Z" fill="#222221"/>
<path d="M404.373 650.715C408.984 655.133 413.965 659.094 418.166 663.9C413.269 663.44 408.384 662.297 403.555 661.342C403.415 660.954 403.251 660.547 403.08 660.161C399.964 653.068 393.21 648.581 386.741 644.818C386.384 644.615 386.037 645.196 386.357 645.456C391.617 649.12 397.372 652.664 400.749 658.301C401.281 659.186 401.741 660.113 402.123 661.073L401.99 661.051L392.904 659.301C389.547 658.648 385.278 658.383 382.472 656.252C380.072 654.43 378.181 651.685 376.207 649.431L369.491 641.772C365.649 637.389 361.834 632.971 357.943 628.624C362.884 630.347 367.917 631.795 373.019 632.961C378.813 634.328 385.31 634.767 390.687 637.456C396.375 640.31 399.861 646.386 404.373 650.715ZM412.906 661.629C413.348 661.599 413.255 660.964 412.831 660.961C411.343 660.95 409.858 660.827 408.388 660.595C408.006 660.54 407.976 661.104 408.303 661.18C409.803 661.579 411.358 661.731 412.906 661.629ZM412.682 660.385C413.1 660.431 413.187 659.762 412.781 659.736C411.903 659.65 410.97 659.549 410.086 659.553C409.781 659.543 409.799 660.012 410.071 660.062C410.895 660.227 411.809 660.304 412.682 660.385ZM369.19 634.504C369.531 634.505 369.548 633.922 369.207 633.91C368.123 633.867 367.065 633.758 365.985 633.651C365.784 633.63 365.669 633.936 365.88 634.003C366.958 634.345 368.082 634.521 369.213 634.522L369.19 634.504ZM368.057 633.188C368.378 633.249 368.554 632.727 368.218 632.626C366.888 632.24 365.495 632.116 364.116 632.26C363.93 632.28 363.914 632.58 364.11 632.596C364.776 632.663 365.42 632.71 366.094 632.791C366.767 632.873 367.419 633.098 368.08 633.206L368.057 633.188Z" fill="#7E5279"/>
<path d="M402.627 662.534C402.786 663.084 402.912 663.642 403.007 664.207C401.018 663.865 399.48 663.587 398.948 663.506C393 662.658 385.63 662.64 380.677 658.808C375.725 654.975 371.577 648.979 367.532 644.156C365.685 641.965 363.857 639.764 362.048 637.552C361.177 636.486 355.349 630.305 356.16 628.497C360.828 633.956 365.611 639.32 370.341 644.726L377.05 652.38C378.728 654.299 380.412 656.631 382.626 657.97C384.616 659.165 386.974 659.483 389.204 659.925C392.473 660.57 395.737 661.198 398.996 661.81C400.203 662.039 401.418 662.284 402.627 662.534Z" fill="#7E5279"/>
<path d="M393.66 671.858C391.42 675.02 390.051 675.2 386.404 674.273C375.605 671.507 365.952 665.407 358.817 656.842C357.853 655.691 356.936 654.881 356.883 653.379C356.832 651.687 358.031 650.687 359.018 649.364C360.811 646.939 362.659 644.531 364.26 641.97C366.722 644.944 369.204 647.903 371.704 650.846C374.434 654.005 377.06 657.726 380.49 660.173C385.386 663.666 392.387 664.209 398.674 664.839C397.012 667.163 395.34 669.503 393.66 671.858ZM362.765 657.538C362.791 657.57 362.822 657.596 362.858 657.615C362.894 657.634 362.934 657.645 362.974 657.648C363.015 657.651 363.055 657.645 363.094 657.632C363.132 657.618 363.167 657.597 363.197 657.569C363.226 657.542 363.25 657.508 363.266 657.471C363.282 657.433 363.29 657.393 363.29 657.353C363.29 657.312 363.281 657.272 363.265 657.235C363.248 657.198 363.225 657.164 363.195 657.137C362.286 656.211 361.396 655.262 360.473 654.353C360.431 654.319 360.379 654.301 360.325 654.303C360.271 654.304 360.22 654.326 360.181 654.363C360.141 654.4 360.117 654.45 360.112 654.503C360.107 654.557 360.122 654.61 360.154 654.654C361 655.634 361.909 656.559 362.765 657.538ZM361.892 658.452C361.952 658.5 362.027 658.522 362.103 658.514C362.179 658.506 362.248 658.468 362.296 658.409C362.344 658.35 362.367 658.274 362.359 658.198C362.351 658.123 362.313 658.053 362.254 658.005C360.771 656.898 359.542 655.486 358.652 653.864C358.526 653.61 358.116 653.752 358.239 654.022C359.008 655.818 360.278 657.353 361.897 658.446L361.892 658.452Z" fill="#7E5279"/>
<path d="M363.195 657.137C363.225 657.164 363.249 657.198 363.265 657.235C363.282 657.272 363.29 657.312 363.29 657.353C363.291 657.393 363.282 657.433 363.266 657.471C363.25 657.508 363.227 657.542 363.197 657.569C363.167 657.597 363.132 657.618 363.094 657.632C363.056 657.645 363.015 657.651 362.974 657.648C362.934 657.645 362.895 657.634 362.859 657.615C362.823 657.596 362.791 657.57 362.766 657.538C361.895 656.577 361 655.634 360.154 654.654C360.122 654.611 360.107 654.557 360.112 654.503C360.117 654.45 360.142 654.4 360.181 654.363C360.22 654.326 360.272 654.305 360.325 654.303C360.379 654.301 360.432 654.319 360.473 654.354C361.396 655.262 362.286 656.211 363.195 657.137Z" fill="#222221"/>
<path d="M362.254 658.005C362.313 658.053 362.351 658.123 362.359 658.198C362.367 658.274 362.344 658.35 362.296 658.409C362.248 658.468 362.179 658.506 362.103 658.514C362.027 658.522 361.952 658.499 361.892 658.451C360.274 657.357 359.006 655.819 358.239 654.022C358.116 653.752 358.554 653.633 358.652 653.863C359.542 655.486 360.771 656.898 362.254 658.005Z" fill="#222221"/>
<path d="M369.23 633.929C369.571 633.94 369.554 634.523 369.213 634.522C368.091 634.524 366.975 634.355 365.904 634.021C365.692 633.954 365.807 633.649 366.008 633.67C367.088 633.776 368.146 633.885 369.23 633.929Z" fill="#222221"/>
<path d="M368.241 632.645C368.577 632.746 368.401 633.267 368.08 633.206C367.42 633.097 366.782 632.913 366.117 632.81C365.452 632.707 364.795 632.687 364.133 632.615C363.937 632.598 363.953 632.298 364.139 632.279C365.518 632.134 366.911 632.258 368.241 632.645Z" fill="#222221"/>
<path d="M400.74 100.537C401.556 99.5481 402.375 98.5746 403.181 97.5801C403.154 97.6454 403.149 97.7179 403.167 97.7862C403.186 97.8545 403.226 97.9148 403.283 97.9575C403.743 98.2413 404.22 98.496 404.712 98.7201C405.2 98.9682 405.674 99.2205 406.166 99.4512C406.221 99.4833 406.288 99.4919 406.35 99.4751C406.412 99.4583 406.465 99.4175 406.497 99.3617C406.529 99.306 406.538 99.2397 406.521 99.1776C406.504 99.1155 406.463 99.0626 406.407 99.0306C405.955 98.7314 405.475 98.456 405.018 98.1995C404.565 97.9012 404.092 97.6341 403.603 97.3999C403.553 97.3759 403.498 97.3652 403.442 97.3686C403.387 97.372 403.333 97.3895 403.286 97.4194C404.883 95.4674 406.471 93.5175 408.039 91.5486C410.385 93.2286 412.763 94.8422 415.019 96.6459C416.178 97.5723 423.247 102.629 419.878 104.473C419.853 104.487 419.83 104.505 419.812 104.528C419.794 104.55 419.781 104.576 419.773 104.603C419.765 104.631 419.763 104.66 419.766 104.688C419.769 104.717 419.778 104.744 419.792 104.769C411.22 113.416 402.903 122.307 394.732 131.308C386.451 140.422 377.887 149.496 370.163 159.112C367.839 157.608 357.247 151.255 357.705 148.486C357.817 148.527 357.938 148.532 358.052 148.501C358.167 148.471 358.269 148.405 358.344 148.314L362.015 144.281C363.093 145.145 364.223 145.944 365.397 146.673C365.689 146.866 366.042 146.399 365.769 146.184C364.739 145.31 363.659 144.498 362.533 143.752C363.515 142.677 364.494 141.6 365.47 140.521C365.488 140.492 365.513 140.468 365.542 140.452L368.776 136.884C369.023 137.081 369.28 137.265 369.546 137.436C369.97 137.751 370.385 138.036 370.831 138.37C371.108 138.568 371.447 138.112 371.19 137.893C370.782 137.548 370.377 137.211 369.965 136.877C369.752 136.703 369.53 136.49 369.292 136.315L371.984 133.339C372.251 133.532 372.537 133.702 372.796 133.897C373.284 134.236 373.807 134.582 374.273 134.928C374.514 135.086 374.814 134.699 374.582 134.513C374.111 134.145 373.634 133.786 373.155 133.42C372.915 133.237 372.679 133.036 372.43 132.847L374.795 130.224L374.806 130.263C375.219 130.449 375.663 130.56 376.061 130.75C376.476 130.978 376.859 131.257 377.203 131.582C377.229 131.607 377.26 131.627 377.293 131.64C377.326 131.653 377.362 131.66 377.398 131.659C377.434 131.659 377.469 131.651 377.502 131.637C377.535 131.623 377.565 131.602 377.59 131.577C377.615 131.551 377.635 131.52 377.648 131.487C377.662 131.454 377.668 131.418 377.668 131.382C377.667 131.346 377.66 131.311 377.645 131.278C377.631 131.245 377.611 131.215 377.585 131.19C376.977 130.457 376.159 129.928 375.242 129.674L378.214 126.392C378.257 126.44 378.313 126.477 378.375 126.497C379.182 126.767 379.914 127.223 380.511 127.829C380.75 128.07 381.212 127.73 380.994 127.442C380.424 126.679 379.626 126.116 378.716 125.834C379.579 124.866 380.447 123.921 381.302 122.954C382.196 123.319 383.025 123.826 383.757 124.456C383.811 124.497 383.878 124.518 383.946 124.513C384.014 124.508 384.078 124.479 384.126 124.431C384.174 124.382 384.202 124.318 384.206 124.25C384.21 124.182 384.189 124.115 384.146 124.062C383.492 123.347 382.699 122.774 381.815 122.377L384.421 119.45C385.214 119.938 386.098 120.336 386.927 120.773C386.989 120.804 387.06 120.81 387.127 120.79C387.193 120.77 387.249 120.725 387.283 120.665C387.318 120.605 387.328 120.535 387.312 120.467C387.296 120.4 387.255 120.341 387.197 120.303C386.43 119.85 385.671 119.336 384.881 118.921L387.862 115.545C388.84 116.107 389.889 116.535 390.878 117.011C391.163 117.149 391.401 116.746 391.127 116.589C390.215 116.058 389.294 115.431 388.354 114.983C389.207 114.008 390.061 113.042 390.873 112.071C390.896 112.128 390.935 112.178 390.986 112.214C391.419 112.502 391.925 112.629 392.4 112.889C392.864 113.184 393.3 113.52 393.704 113.892C393.921 114.082 394.313 113.819 394.122 113.573C393.767 113.103 393.34 112.691 392.858 112.352C392.402 111.999 391.872 111.752 391.308 111.631L394.445 107.948C394.478 107.987 394.517 108.018 394.561 108.041C395.478 108.529 396.387 109.019 397.313 109.479C397.375 109.51 397.447 109.516 397.513 109.496C397.579 109.476 397.635 109.432 397.67 109.372C397.704 109.312 397.714 109.241 397.698 109.174C397.682 109.106 397.641 109.048 397.583 109.01C396.705 108.421 395.838 107.903 394.955 107.356C395.828 106.335 396.708 105.312 397.577 104.276C398.563 104.974 399.683 105.462 400.865 105.71C401.229 105.802 401.352 105.281 401.011 105.15C400.485 104.945 399.954 104.724 399.438 104.467C398.923 104.21 398.522 103.888 398.03 103.691C398.769 102.814 399.517 101.942 400.253 101.057C400.276 101.137 400.326 101.205 400.396 101.25C401.317 101.753 402.266 102.203 403.239 102.597C403.628 102.782 403.961 102.212 403.582 102.001C402.662 101.461 401.714 100.972 400.74 100.537ZM356.872 147.695C355.51 150.212 358.418 151.889 360.144 153.232C363.291 155.643 366.588 157.852 370.014 159.846C370.076 159.88 370.146 159.895 370.216 159.891C370.264 159.956 370.326 160.009 370.397 160.046C370.469 160.082 370.549 160.101 370.629 160.101C370.71 160.101 370.789 160.082 370.861 160.046C370.933 160.009 370.995 159.956 371.043 159.891C379.457 150.841 387.368 141.306 395.672 132.154C403.975 123.001 412.386 113.969 420.75 104.858C420.8 104.8 420.83 104.728 420.835 104.653C422.707 103.75 421.638 101.262 420.39 99.9466C416.795 96.3328 412.748 93.1984 408.35 90.6215C408.318 90.5915 408.28 90.5683 408.238 90.5535C408.196 90.5386 408.152 90.5323 408.108 90.5349C408.064 90.5376 408.021 90.5491 407.982 90.5689C407.942 90.5886 407.907 90.6161 407.878 90.6498C390.857 109.381 374.482 128.698 357.398 147.379C357.398 147.379 357.408 147.418 357.351 147.45C357.255 147.436 357.158 147.452 357.072 147.496C356.986 147.54 356.916 147.609 356.872 147.695Z" fill="#222221"/>
<path d="M357.713 148.517C357.255 151.286 367.847 157.638 370.171 159.143C377.895 149.527 386.436 140.459 394.741 131.339C402.927 122.334 411.243 113.442 419.801 104.8C419.786 104.775 419.777 104.747 419.774 104.719C419.771 104.69 419.773 104.662 419.781 104.634C419.789 104.606 419.802 104.581 419.82 104.558C419.838 104.536 419.861 104.518 419.886 104.504C423.286 102.619 416.217 97.5617 415.057 96.6353C412.802 94.8316 410.423 93.2181 408.077 91.538C406.51 93.5069 404.921 95.4568 403.325 97.4088C403.371 97.3789 403.425 97.3614 403.481 97.358C403.536 97.3546 403.591 97.3653 403.642 97.3893C404.131 97.6235 404.603 97.8906 405.056 98.1889C405.518 98.4608 406.024 98.7125 406.446 99.02C406.502 99.052 406.542 99.1049 406.559 99.167C406.576 99.2291 406.567 99.2954 406.535 99.3512C406.503 99.4069 406.45 99.4477 406.388 99.4645C406.326 99.4813 406.26 99.4727 406.204 99.4406C405.712 99.21 405.247 98.9556 404.75 98.7095C404.259 98.4878 403.783 98.2357 403.323 97.9546C403.267 97.9119 403.226 97.8517 403.208 97.7834C403.189 97.715 403.194 97.6425 403.221 97.5772C402.416 98.5717 401.596 99.5452 400.781 100.534C401.766 100.97 402.727 101.461 403.657 102.005C404.044 102.214 403.711 102.817 403.314 102.602C402.342 102.207 401.392 101.757 400.471 101.254C400.402 101.209 400.351 101.141 400.328 101.061C399.592 101.946 398.844 102.818 398.106 103.695C398.599 103.9 399.084 104.257 399.514 104.471C399.944 104.686 400.56 104.949 401.087 105.154C401.428 105.285 401.266 105.816 400.941 105.714C399.758 105.466 398.639 104.978 397.652 104.28C396.79 105.34 395.903 106.34 395.03 107.361C395.913 107.907 396.787 108.448 397.659 109.014C397.717 109.052 397.758 109.11 397.774 109.178C397.79 109.245 397.78 109.316 397.745 109.376C397.711 109.436 397.655 109.48 397.588 109.5C397.522 109.52 397.451 109.514 397.389 109.483C396.44 109.029 395.554 108.533 394.637 108.045C394.592 108.022 394.553 107.991 394.521 107.953L391.384 111.635C391.921 111.766 392.424 112.01 392.858 112.352C393.364 112.68 393.813 113.085 394.191 113.554C394.382 113.8 393.99 114.063 393.773 113.874C393.369 113.501 392.933 113.166 392.469 112.87C392.025 112.602 391.489 112.483 391.055 112.195C391.005 112.159 390.965 112.109 390.942 112.052C390.092 113.034 389.237 114 388.424 114.964C389.379 115.441 390.284 116.039 391.196 116.57C391.47 116.727 391.232 117.13 390.947 116.993C389.989 116.507 388.897 116.075 387.931 115.526L384.951 118.902C385.74 119.317 386.499 119.831 387.266 120.285C387.324 120.322 387.365 120.381 387.381 120.448C387.397 120.516 387.387 120.587 387.353 120.647C387.318 120.706 387.262 120.751 387.196 120.771C387.13 120.791 387.058 120.785 386.996 120.754C386.168 120.317 385.283 119.919 384.49 119.431L381.885 122.358C382.768 122.755 383.561 123.328 384.216 124.043C384.258 124.096 384.279 124.163 384.275 124.231C384.271 124.299 384.243 124.363 384.195 124.412C384.147 124.46 384.083 124.489 384.015 124.494C383.948 124.499 383.88 124.479 383.826 124.437C383.094 123.807 382.265 123.3 381.371 122.935C380.516 123.902 379.648 124.847 378.786 125.816C379.696 126.097 380.493 126.66 381.063 127.423C381.281 127.711 380.819 128.051 380.581 127.81C379.983 127.205 379.251 126.748 378.444 126.478C378.382 126.458 378.327 126.422 378.283 126.373L375.311 129.655C376.229 129.909 377.047 130.438 377.654 131.171C377.68 131.196 377.7 131.226 377.715 131.259C377.729 131.292 377.736 131.327 377.737 131.363C377.737 131.399 377.731 131.435 377.718 131.468C377.704 131.502 377.685 131.532 377.659 131.558C377.634 131.583 377.605 131.604 377.572 131.618C377.539 131.632 377.503 131.64 377.467 131.641C377.431 131.641 377.396 131.634 377.362 131.621C377.329 131.608 377.298 131.588 377.273 131.563C376.929 131.239 376.545 130.959 376.13 130.731C375.726 130.518 375.282 130.407 374.875 130.244L374.864 130.206L372.499 132.828C372.748 133.017 372.984 133.218 373.224 133.401C373.703 133.767 374.18 134.126 374.651 134.494C374.883 134.68 374.583 135.067 374.342 134.909C373.846 134.572 373.33 134.223 372.865 133.878C372.606 133.683 372.32 133.513 372.053 133.32L369.361 136.296C369.599 136.471 369.822 136.684 370.034 136.858C370.447 137.192 370.852 137.529 371.259 137.874C371.516 138.093 371.177 138.549 370.9 138.351C370.463 138.048 370.045 137.756 369.615 137.417C369.349 137.246 369.092 137.062 368.846 136.865L365.611 140.433C365.66 140.387 365.723 140.359 365.79 140.355C365.856 140.35 365.923 140.369 365.977 140.408C366.778 141.018 367.525 141.643 368.273 142.209C368.527 142.414 368.198 142.849 367.934 142.665C367.145 142.101 366.33 141.561 365.563 140.958C365.53 140.931 365.503 140.897 365.484 140.858C365.465 140.82 365.454 140.778 365.452 140.735C365.449 140.692 365.456 140.65 365.471 140.609C365.486 140.569 365.509 140.533 365.539 140.502C364.565 141.586 363.586 142.663 362.603 143.733C363.728 144.48 364.808 145.291 365.838 146.165C366.111 146.38 365.758 146.848 365.466 146.654C364.292 145.925 363.162 145.126 362.084 144.262L358.414 148.295C358.341 148.408 358.232 148.492 358.104 148.533C357.976 148.573 357.838 148.568 357.713 148.517ZM369.528 154.928C369.464 154.994 369.376 155.031 369.284 155.032C369.192 155.033 369.103 154.997 369.037 154.932C368.972 154.868 368.934 154.78 368.934 154.688C368.933 154.596 368.969 154.508 369.033 154.442C369.703 153.72 370.429 153.051 371.203 152.442C371.249 152.409 371.305 152.393 371.362 152.397C371.418 152.401 371.471 152.425 371.512 152.465C371.552 152.504 371.577 152.557 371.583 152.613C371.588 152.67 371.573 152.726 371.541 152.773C370.928 153.544 370.255 154.264 369.528 154.928ZM370.95 155.726C370.885 155.78 370.801 155.808 370.716 155.804C370.631 155.8 370.55 155.765 370.49 155.705C370.429 155.645 370.393 155.565 370.389 155.48C370.384 155.395 370.411 155.311 370.465 155.245C371.587 154.113 372.61 152.888 373.525 151.584C373.557 151.528 373.61 151.487 373.672 151.47C373.734 151.453 373.8 151.462 373.856 151.494C373.912 151.526 373.953 151.579 373.97 151.641C373.986 151.703 373.978 151.769 373.946 151.825C373.203 153.303 372.186 154.627 370.95 155.726ZM408.888 97.0791C408.661 97.4298 408.066 97.0946 408.331 96.7587L409.425 95.2729C409.631 94.9942 410.096 95.2486 409.897 95.5504L408.888 97.0791ZM410.025 98.2265C409.801 98.5598 409.284 98.2696 409.487 97.9174C409.974 97.0537 410.68 96.333 411.533 95.8272C411.771 95.6969 412.06 96.0321 411.839 96.224C411.143 96.8002 410.535 97.474 410.032 98.2244L410.025 98.2265ZM414.284 101.481C413.587 101.566 412.884 101.38 412.321 100.962C411.757 100.543 411.375 99.9245 411.255 99.2329C411.224 98.9327 411.265 98.6294 411.377 98.3488C411.488 98.0683 411.666 97.819 411.894 97.6222C411.92 97.5721 411.958 97.5298 412.005 97.4996C412.052 97.4695 412.106 97.4525 412.162 97.4507C412.37 97.334 412.606 97.2753 412.844 97.2806C413.082 97.286 413.315 97.3553 413.517 97.4812C413.962 97.5011 414.394 97.6378 414.769 97.8773C415.144 98.1168 415.449 98.4508 415.655 98.8458C415.799 99.102 415.878 99.3902 415.883 99.6844C415.889 99.9786 415.82 100.269 415.685 100.531C415.55 100.792 415.352 101.015 415.108 101.181C414.865 101.346 414.584 101.449 414.292 101.478L414.284 101.481Z" fill="#A4CED4"/>
<path d="M369.033 154.442C368.968 154.508 368.933 154.596 368.933 154.688C368.934 154.78 368.972 154.868 369.037 154.932C369.103 154.997 369.191 155.033 369.283 155.032C369.375 155.031 369.463 154.994 369.528 154.928C370.255 154.264 370.928 153.544 371.54 152.773C371.573 152.726 371.588 152.67 371.582 152.613C371.577 152.557 371.552 152.504 371.512 152.465C371.471 152.425 371.418 152.401 371.362 152.397C371.305 152.393 371.249 152.409 371.203 152.442C370.429 153.051 369.703 153.72 369.033 154.442Z" fill="#222221"/>
<path d="M365.468 140.513C365.438 140.544 365.415 140.581 365.4 140.621C365.385 140.661 365.378 140.704 365.38 140.747C365.383 140.789 365.394 140.831 365.413 140.87C365.432 140.908 365.459 140.942 365.492 140.969C366.262 141.588 367.074 142.112 367.862 142.676C368.127 142.861 368.456 142.425 368.202 142.221C367.439 141.6 366.692 140.976 365.906 140.42C365.851 140.381 365.785 140.362 365.719 140.366C365.652 140.371 365.589 140.398 365.54 140.444C365.51 140.46 365.486 140.484 365.468 140.513Z" fill="#222221"/>
<path d="M370.465 155.245C370.411 155.311 370.384 155.395 370.388 155.48C370.393 155.565 370.429 155.646 370.49 155.705C370.55 155.765 370.631 155.801 370.716 155.804C370.801 155.808 370.884 155.78 370.95 155.726C372.186 154.627 373.203 153.303 373.946 151.826C373.978 151.77 373.986 151.704 373.97 151.641C373.953 151.579 373.912 151.526 373.856 151.494C373.8 151.462 373.734 151.454 373.672 151.471C373.61 151.487 373.557 151.528 373.525 151.584C372.61 152.889 371.587 154.114 370.465 155.245Z" fill="#222221"/>
<path d="M408.33 96.7588C408.089 97.0885 408.661 97.4299 408.888 97.0792L409.897 95.5505C410.096 95.2487 409.631 94.9943 409.425 95.273L408.33 96.7588Z" fill="#222221"/>
<path d="M409.501 97.9384C409.298 98.2906 409.815 98.5808 410.039 98.2475C410.544 97.4958 411.155 96.8213 411.853 96.245C412.074 96.0531 411.785 95.7179 411.547 95.8482C410.694 96.354 409.988 97.0747 409.501 97.9384Z" fill="#222221"/>
<path d="M411.263 99.2312C411.383 99.9228 411.764 100.542 412.328 100.96C412.892 101.379 413.595 101.564 414.292 101.479C414.584 101.449 414.865 101.347 415.108 101.181C415.351 101.016 415.55 100.792 415.685 100.531C415.82 100.27 415.888 99.979 415.883 99.6848C415.878 99.3906 415.799 99.1024 415.654 98.8462C415.452 98.4582 415.153 98.1291 414.786 97.8908C414.419 97.6526 413.997 97.5133 413.56 97.4866C413.357 97.3607 413.125 97.2914 412.886 97.2861C412.648 97.2807 412.413 97.3394 412.205 97.4561C412.149 97.4579 412.094 97.4749 412.047 97.5051C412 97.5352 411.962 97.5776 411.937 97.6276C411.703 97.8201 411.519 98.0667 411.402 98.3461C411.284 98.6254 411.237 98.9293 411.263 99.2312ZM412.68 100.071C412.385 99.81 412.201 99.4459 412.165 99.0535C412.142 98.5391 412.518 97.9746 413.096 98.2153C413.209 98.2643 413.337 98.2681 413.454 98.2259C413.781 98.2857 414.093 98.4058 414.376 98.5801C414.619 98.7365 414.804 98.9678 414.905 99.2388C415.005 99.5099 415.014 99.8062 414.931 100.083C414.514 100.956 413.21 100.565 412.68 100.071Z" fill="#222221"/>
</svg>
