<svg width="41" height="45" viewBox="0 0 41 45" fill="none" xmlns="http://www.w3.org/2000/svg">
<g clip-path="url(#clip0_108_827)">
<path d="M35.1378 43.9578C36.411 43.9556 37.6314 43.4548 38.5317 42.5653C39.4319 41.6757 39.9387 40.4698 39.9409 39.2117V5.79236C39.9435 4.95875 39.7234 4.13925 39.3027 3.41671C38.8819 2.69418 38.2755 2.09424 37.5449 1.67759C36.8142 1.26095 35.985 1.04237 35.1414 1.04395C34.2978 1.04554 33.4696 1.26722 32.7405 1.68661L3.45179 18.3984C2.72259 18.8141 2.11702 19.4122 1.69599 20.1326C1.27496 20.853 1.05327 21.6702 1.05327 22.502C1.05327 23.3339 1.27496 24.1511 1.69599 24.8715C2.11702 25.5918 2.72259 26.19 3.45179 26.6057L32.7405 43.3175C33.4679 43.7338 34.293 43.9546 35.1336 43.9578H35.1378Z" fill="#AA1070"/>
<path d="M31.9241 39C33.0045 38.9983 34.0401 38.6132 34.8041 37.9292C35.5681 37.2451 35.9981 36.3178 36 35.3503V9.65144C36.0022 9.01042 35.8154 8.38023 35.4584 7.82462C35.1013 7.269 34.5868 6.80766 33.9667 6.48726C33.3466 6.16687 32.6431 5.99879 31.9272 6.00001C31.2113 6.00122 30.5084 6.1717 29.8897 6.4942L5.03538 19.3453C4.41659 19.6649 3.9027 20.1249 3.54541 20.6788C3.18813 21.2328 3 21.8612 3 22.5009C3 23.1406 3.18813 23.769 3.54541 24.3229C3.9027 24.8769 4.41659 25.3368 5.03538 25.6565L29.8897 38.5076C30.507 38.8278 31.2072 38.9975 31.9205 39H31.9241Z" fill="#CD3F97"/>
<path d="M35.138 2.09263C34.4828 2.09471 33.8398 2.26796 33.2743 2.59485L3.98555 19.2941C3.4174 19.6185 2.94567 20.085 2.61769 20.6467C2.28971 21.2083 2.11705 21.8453 2.11705 22.4937C2.11705 23.1421 2.28971 23.7792 2.61769 24.3408C2.94567 24.9024 3.4174 25.3689 3.98555 25.6933L33.2743 42.4009C33.8419 42.7287 34.4872 42.9023 35.1447 42.9041C35.8021 42.9059 36.4484 42.7358 37.0178 42.4111C37.5873 42.0864 38.0597 41.6187 38.3871 41.0553C38.7145 40.492 38.8853 39.853 38.8822 39.2034V5.7924C38.8822 4.81115 38.4877 3.87011 37.7855 3.17627C37.0833 2.48243 36.131 2.09263 35.138 2.09263ZM35.138 0C36.692 0.00221423 38.1817 0.61318 39.2805 1.69899C40.3794 2.7848 40.9977 4.25683 40.9999 5.7924V39.2118C41.0053 40.2298 40.7383 41.2312 40.2259 42.1144C39.7135 42.9976 38.974 43.7313 38.0822 44.2411C37.1904 44.751 36.1782 45.0189 35.1479 45.0176C34.1176 45.0164 33.1059 44.7461 32.2154 44.2341L2.92667 27.5265C2.0366 27.0183 1.29756 26.2877 0.783722 25.408C0.269886 24.5282 -0.000617981 23.5304 -0.000617981 22.5146C-0.000617981 21.4989 0.269886 20.501 0.783722 19.6213C1.29756 18.7416 2.0366 18.0109 2.92667 17.5028L32.2154 0.795186C33.1033 0.285719 34.1112 0.0158226 35.138 0.0125425V0Z" fill="#F8EBFD"/>
<g style="mix-blend-mode:screen">
<path fill-rule="evenodd" clip-rule="evenodd" d="M30.5 8.00006C28.5 9.00006 26 10.7591 24.3597 11.6781C22 13.0001 19.1863 14.6926 17.5 14.5001C15.2307 13.8707 19.4123 12.6277 21 11.5001C22.931 10.0961 25.0864 8.69938 27.5 8.00007C29.5 6.50008 32.7522 5.75936 30.5 8.00006Z" fill="#CD3F97"/>
</g>
</g>
<defs>
<clipPath id="clip0_108_827">
<rect width="41" height="45" fill="white" transform="matrix(-1 0 0 1 41 0)"/>
</clipPath>
</defs>
</svg>
