<svg width="176" height="100" viewBox="0 0 176 100" fill="none" xmlns="http://www.w3.org/2000/svg">
<path d="M173.713 46.9404C172.939 44.6407 171.868 42.4603 170.527 40.4587C169.838 39.4086 169.068 38.4178 168.224 37.4963C167.552 36.6832 166.76 35.9843 165.878 35.4248C166.197 31.6269 165.626 27.8053 164.214 24.2844C162.801 20.7636 160.589 17.6473 157.764 15.2002C153.996 12.143 149.544 10.1162 144.82 9.3066C140.096 8.49697 135.251 8.93047 130.731 10.5672C125.517 12.3558 120.839 15.5094 117.15 19.7217C114.756 16.5538 111.986 13.7102 108.907 11.2577C103.75 7.20999 97.9112 4.18889 91.6881 2.34814C78.9069 -1.40434 65.2152 0.154034 53.5276 6.69153C51.1368 8.0008 48.842 9.48972 46.6617 11.1463C38.2892 6.892 27.6567 8.09479 19.4134 12.1264C10.4813 16.5811 2.66838 25.0897 1.07566 35.4694C0.529653 38.4693 0.632474 41.5571 1.37676 44.511C2.12104 47.4648 3.4883 50.2114 5.38029 52.5534C5.58787 52.7812 5.85853 52.9369 6.15509 52.9989C5.06133 54.7672 4.23398 56.6974 3.70146 58.7233C2.6902 61.988 2.65021 65.4919 3.58664 68.7805C4.52307 72.069 6.39272 74.9905 8.95311 77.1661C10.298 78.2221 11.8139 79.0216 13.4299 79.5271C14.2754 79.9079 15.1875 80.1044 16.1096 80.1044C17.0316 80.1044 17.9438 79.9079 18.7892 79.5271C21.6222 84.4549 25.9287 88.2939 31.0574 90.4636C34.0734 91.7205 37.3034 92.3349 40.5541 92.2698C43.8048 92.2048 47.0095 91.4616 49.9762 90.0849C51.5599 93.1188 54.1752 95.4364 57.3156 96.5889C61.0818 98.0752 65.0442 98.9613 69.0673 99.2172C77.7904 100.013 86.5788 98.9597 94.8951 96.1211C99.6972 94.4442 104.297 92.2021 108.605 89.439C108.693 89.3899 108.768 89.3198 108.824 89.2346C108.88 89.1493 108.916 89.0514 108.928 88.9489C113.212 91.8645 118.165 93.5552 123.284 93.8492C131.002 94.2151 138.555 91.4683 144.355 86.187C145.799 84.8819 147.125 83.4429 148.316 81.8881C150.074 82.2892 151.895 82.2892 153.653 81.8881C155.756 81.5205 157.808 80.8923 159.766 80.0171C163.772 78.1952 167.289 75.3892 170.011 71.8426C172.597 68.3466 174.292 64.2333 174.939 59.8814C175.586 55.5296 175.164 51.0793 173.713 46.9404Z" fill="#AAAAAA"/>
<path d="M172.787 58.0773C172.469 62.1818 171.146 66.1349 168.943 69.5641C166.74 72.9933 163.73 75.7857 160.196 77.6783C158.214 78.7863 156.101 79.6248 153.911 80.173C152.06 80.5962 150.166 80.663 148.294 80.9748C148.864 80.1862 149.396 79.3685 149.887 78.5247C150.533 77.679 150.929 76.6579 151.027 75.5845C151.027 74.8718 150.145 74.6713 149.693 75.0722C148.556 76.4414 147.567 77.9352 146.744 79.527C145.728 80.9723 144.59 82.3214 143.344 83.5586C140.844 86.0221 137.925 87.9855 134.734 89.3498C127.996 92.2006 120.445 92.2006 113.706 89.3498C109.863 87.7178 106.313 85.4288 103.203 82.5785C102.859 82.2444 102.234 82.8458 102.514 83.2467C103.92 85.1994 105.612 86.9129 107.529 88.3252H107.335C100.013 92.7979 91.8952 95.6992 83.4662 96.8561C79.3467 97.3869 75.1858 97.484 71.0473 97.1457C67.1546 96.9094 63.3069 96.161 59.597 94.9183C57.7953 94.311 56.0961 93.4167 54.5606 92.2677C53.3452 91.2759 52.3351 90.0412 51.5904 88.637L51.9348 88.4366C53.7181 87.3724 55.3789 86.1021 56.8851 84.65C58.5902 83.2426 59.923 81.4111 60.7593 79.3266C61.1252 78.0124 59.5109 78.0124 58.8652 78.6361C58.3037 79.2757 57.7927 79.961 57.3371 80.6853C56.797 81.4116 56.2147 82.1033 55.5937 82.7567C54.403 84.0188 53.0739 85.1326 51.6334 86.0755C48.7883 87.9905 45.569 89.2303 42.2063 89.7062C38.8294 90.1424 35.4011 89.8037 32.1648 88.7143C28.9286 87.6249 25.9639 85.8114 23.4812 83.4027C20.6427 80.7173 18.4973 77.3409 17.2395 73.5799C16.9812 72.8003 15.7759 73.4017 15.9911 74.1367C16.281 75.1 16.6259 76.0446 17.0242 76.9655C16.1011 76.902 15.1816 76.7905 14.2693 76.6314C12.9954 76.2667 11.7882 75.6872 10.6964 74.9163C8.42822 73.2773 6.71831 70.9386 5.81067 68.2342C4.94188 65.2937 4.77986 62.1782 5.33874 59.1583C5.89761 56.1383 7.16046 53.3053 9.0176 50.9051C11.0179 48.1888 13.4312 45.8267 16.1633 43.9111C16.9381 43.3542 16.1633 42.3965 15.4315 42.8865C12.3597 44.83 9.63621 47.3093 7.38185 50.2146C4.28372 46.4696 2.73704 41.6117 3.07722 36.6944C3.55685 31.7004 5.46815 26.9688 8.56563 23.1073C14.1551 16.1041 22.161 11.6299 30.8851 10.6339C35.6252 10.1124 40.4166 10.444 45.0474 11.614C41.545 14.4179 38.4183 17.6912 35.7494 21.3477C35.6035 21.4912 35.4874 21.664 35.408 21.8554C35.3286 22.0469 35.2877 22.253 35.2877 22.4614C35.2877 22.6697 35.3286 22.8758 35.408 23.0673C35.4874 23.2587 35.6035 23.4315 35.7494 23.5751C36.1218 23.7958 36.5581 23.8722 36.98 23.7906C37.402 23.709 37.7821 23.4747 38.0523 23.1296C45.6897 12.5739 56.9122 5.40971 69.4546 3.08308C81.9361 0.897213 94.7525 3.7428 105.269 11.0349C111.268 15.0011 116.4 20.2208 120.335 26.3593C120.529 26.6488 121.024 26.3593 120.852 25.9806C119.846 24.1413 118.717 22.3773 117.473 20.7017C120.456 17.1112 124.27 14.3603 128.557 12.7054C132.8 10.995 137.363 10.302 141.902 10.6785C146.287 10.9818 150.505 12.5427 154.082 15.1863C157.659 17.8299 160.454 21.4518 162.155 25.6465C163.954 30.3265 164.023 35.5288 162.349 40.2582C161.854 41.5501 163.661 42.0401 164.092 40.8818C164.544 39.7224 164.889 38.5218 165.125 37.2957L165.986 38.1644C166.712 38.9415 167.388 39.7674 168.009 40.6368C169.176 42.2713 170.151 44.0433 170.915 45.9157C172.44 49.765 173.081 53.9281 172.787 58.0773Z" fill="white"/>
<g style="mix-blend-mode:multiply">
<path d="M172.335 51.2393C171.773 54.9588 170.468 58.5164 168.504 61.6857C166.484 64.775 163.813 67.3492 160.691 69.2143C155.418 72.5108 146.68 75.8964 141.708 70.6398C139.084 72.3317 136.234 73.615 133.249 74.4486C125.318 76.6136 116.928 76.1382 109.273 73.0899C105.4 71.5015 101.774 69.3326 98.511 66.6528C96.3586 64.9377 93.2163 62.6212 92.6136 59.6365C91.4725 60.839 90.2497 61.9556 88.9547 62.9776C86.2884 65.1564 83.241 66.7825 79.9795 67.7665C77.5029 68.3941 74.9724 68.7671 72.4249 68.8802C69.5345 69.1113 66.6269 68.8556 63.8157 68.1228C62.6679 67.8975 61.5888 67.3919 60.6679 66.6481C59.747 65.9043 59.0109 64.9437 58.5209 63.8463C57.83 64.3027 57.1111 64.7119 56.3686 65.0713C50.4713 67.8333 41.0011 68.3679 36.3306 63.4231C33.5936 63.5686 30.8682 62.9615 28.4316 61.6634C24.127 59.436 19.0905 55.5604 18.0359 50.3483C17.6261 47.2308 18.1521 44.0584 19.5425 41.2606C20.2631 39.401 21.242 37.6602 22.4482 36.093C20.3639 36.2155 18.2732 36.0583 16.228 35.6253C12.1601 34.7566 7.33891 32.5069 5.20812 28.5645C3.99719 31.108 3.26667 33.8674 3.0558 36.6944C2.72154 41.6148 4.27607 46.4731 7.38194 50.2147C9.69696 47.3334 12.4791 44.8913 15.6038 42.9979C16.3786 42.5079 17.1104 43.4657 16.3356 44.0225C13.6035 45.9381 11.1902 48.3002 9.18988 51.0165C7.33274 53.4167 6.06989 56.2498 5.51102 59.2697C4.95214 62.2897 5.11416 65.4051 5.98295 68.3456C6.89059 71.05 8.6005 73.3887 10.8687 75.0278C11.9605 75.7987 13.1676 76.3781 14.4415 76.7428C15.3539 76.9019 16.2733 77.0134 17.1965 77.0769C16.7982 76.1561 16.4532 75.2115 16.1634 74.2482C15.9482 73.5131 17.1535 72.9117 17.4117 73.6913C18.6696 77.4523 20.815 80.8287 23.6534 83.5141C26.1361 85.9228 29.1009 87.7363 32.3371 88.8257C35.5733 89.9152 39.0016 90.2538 42.3786 89.8176C45.7412 89.3418 48.9606 88.1019 51.8057 86.187C53.2462 85.244 54.5753 84.1302 55.766 82.8682C56.387 82.2148 56.9692 81.523 57.5093 80.7967C57.9649 80.0724 58.476 79.3871 59.0375 78.7475C59.6832 78.1238 61.2975 78.1238 60.9316 79.438C60.0953 81.5226 58.7624 83.354 57.0574 84.7614C55.5332 86.2332 53.8505 87.5187 52.0425 88.5925L51.6981 88.793C52.4428 90.1972 53.4529 91.4319 54.6683 92.4236C56.2038 93.5727 57.903 94.4669 59.7047 95.0742C63.4146 96.3169 67.2624 97.0654 71.1551 97.3016C75.2935 97.6399 79.4544 97.5429 83.5739 97.0121C92.0029 95.8552 100.121 92.9539 107.443 88.4812H107.637C105.72 87.0689 104.028 85.3554 102.622 83.4027C102.342 83.0018 102.966 82.4004 103.311 82.7345C106.392 85.4832 109.89 87.6881 113.663 89.2608C120.402 92.1115 127.953 92.1115 134.691 89.2608C137.882 87.8965 140.801 85.933 143.301 83.4696C144.547 82.2324 145.685 80.8832 146.701 79.438C147.524 77.8462 148.513 76.3524 149.65 74.9832C150.102 74.5823 150.984 74.7827 150.984 75.4955C150.886 76.5689 150.49 77.5899 149.844 78.4356C149.353 79.2794 148.821 80.0972 148.251 80.8858C150.123 80.5739 152.018 80.5071 153.868 80.0839C156.069 79.5677 158.196 78.7591 160.196 77.6783C163.73 75.7858 166.74 72.9934 168.943 69.5642C171.146 66.135 172.469 62.1819 172.787 58.0773C172.924 55.7873 172.772 53.4887 172.335 51.2393Z" fill="#EDEDED"/>
</g>
</svg>
