<svg width="48" height="48" viewBox="0 0 48 48" fill="none" xmlns="http://www.w3.org/2000/svg">
<circle cx="24" cy="24" r="22.5" fill="#AA1070" stroke="#F8EBFD" stroke-width="3"/>
<circle cx="23.9999" cy="23.9999" r="20.3636" fill="#CD3F97"/>
<path d="M14.1962 7.57916C17.7048 5.0985 20.3274 5.06952 21.2001 5.36511C14.0696 7.95319 13.1768 11.8201 12.6761 12.0675C10.8707 12.9593 9.81055 10.68 14.1962 7.57916Z" fill="white"/>
<ellipse cx="23.0468" cy="4.60168" rx="1" ry="0.5" transform="rotate(-6.00198 23.0468 4.60168)" fill="white"/>
<path d="M27.752 26.6952C28.3483 26.6955 28.9201 26.9325 29.3416 27.3543C29.7632 27.776 30 28.3479 30 28.9442V29.8622C30.0004 30.4359 29.8214 30.9953 29.488 31.4622C27.942 33.6252 25.417 34.6952 21.997 34.6952C18.575 34.6952 16.052 33.6232 14.51 31.4592C14.1781 30.9932 13.9998 30.4353 14 29.8632V28.9432C14.0001 28.6479 14.0584 28.3554 14.1716 28.0826C14.2847 27.8098 14.4505 27.562 14.6594 27.3532C14.8684 27.1445 15.1164 26.9789 15.3893 26.866C15.6622 26.7531 15.9547 26.6951 16.25 26.6952H27.752ZM32.052 13.0992C32.2247 13.0006 32.4294 12.9746 32.6213 13.0269C32.8131 13.0792 32.9763 13.2056 33.075 13.3782C34.174 15.3019 34.7505 17.4797 34.747 19.6952C34.747 21.9492 34.161 24.1192 33.064 26.0312C33.0161 26.1187 32.9512 26.1958 32.8732 26.2579C32.7952 26.32 32.7055 26.3659 32.6095 26.393C32.5135 26.42 32.4131 26.4277 32.3141 26.4154C32.2151 26.4032 32.1196 26.3713 32.033 26.3217C31.9465 26.2721 31.8707 26.2057 31.8102 26.1265C31.7496 26.0472 31.7055 25.9567 31.6803 25.8602C31.6552 25.7637 31.6495 25.6631 31.6637 25.5644C31.6779 25.4656 31.7117 25.3707 31.763 25.2852C32.7388 23.584 33.2506 21.6564 33.247 19.6952C33.247 17.7122 32.734 15.8052 31.772 14.1222C31.6735 13.9494 31.6476 13.7446 31.7001 13.5527C31.7526 13.3609 31.8792 13.1977 32.052 13.0992ZM21.997 14.6992C23.3231 14.6992 24.5949 15.226 25.5325 16.1637C26.4702 17.1014 26.997 18.3731 26.997 19.6992C26.997 21.0253 26.4702 22.2971 25.5325 23.2347C24.5949 24.1724 23.3231 24.6992 21.997 24.6992C20.6709 24.6992 19.3991 24.1724 18.4615 23.2347C17.5238 22.2971 16.997 21.0253 16.997 19.6992C16.997 18.3731 17.5238 17.1014 18.4615 16.1637C19.3991 15.226 20.6709 14.6992 21.997 14.6992ZM28.586 15.0952C28.7588 14.9967 28.9636 14.9708 29.1555 15.0233C29.3473 15.0759 29.5105 15.2024 29.609 15.3752C30.3573 16.6918 30.7495 18.1808 30.747 19.6952C30.7491 21.2128 30.3551 22.7046 29.604 24.0232C29.5552 24.1088 29.49 24.184 29.4122 24.2444C29.3344 24.3049 29.2454 24.3494 29.1503 24.3754C29.0553 24.4015 28.9561 24.4085 28.8583 24.3962C28.7605 24.3839 28.6661 24.3525 28.5805 24.3037C28.4949 24.2549 28.4197 24.1897 28.3593 24.1119C28.2988 24.0341 28.2543 23.9451 28.2283 23.85C28.2022 23.755 28.1952 23.6558 28.2075 23.558C28.2198 23.4602 28.2512 23.3658 28.3 23.2802C28.9227 22.1881 29.2491 20.9523 29.247 19.6952C29.2494 18.4409 28.9248 17.2077 28.305 16.1172C28.2068 15.9445 28.1811 15.7399 28.2336 15.5483C28.2861 15.3567 28.4135 15.1937 28.586 15.0952Z" fill="white"/>
</svg>
