<svg width="553" height="74" viewBox="0 0 553 74" fill="none" xmlns="http://www.w3.org/2000/svg">
<g filter="url(#filter0_d_0_231)">
<path d="M12 34.0955C12 21.8925 21.8925 12 34.0955 12H518.904C531.107 12 541 21.8925 541 34.0955V39.9045C541 52.1075 531.107 62 518.904 62H34.0955C21.8925 62 12 52.1075 12 39.9045V34.0955Z" fill="#FE6784"/>
<path d="M13.6766 48.3624C12.949 46.6077 12.4409 44.7389 12.1868 42.7903L13.83 42.576C13.716 41.7024 13.6572 40.8107 13.6572 39.9045V38.4522H12V35.5478H13.6572V34.0955C13.6572 33.1893 13.716 32.2976 13.83 31.424L12.1868 31.2097C12.4409 29.2611 12.949 27.3923 13.6766 25.6376L15.2074 26.2724C15.896 24.6117 16.7978 23.0608 17.8789 21.6539L16.5649 20.6441C17.7412 19.1134 19.1134 17.7412 20.6441 16.565L21.6539 17.8789C23.0608 16.7978 24.6117 15.896 26.2724 15.2074L25.6376 13.6766C27.3923 12.949 29.2611 12.4409 31.2097 12.1868L31.424 13.83C32.2976 13.716 33.1893 13.6572 34.0955 13.6572H36.8506V12H42.3597V13.6572H47.8689V12H53.3781V13.6572H58.8873V12H64.3965V13.6572H69.9057V12H75.4149V13.6572H80.9241V12H86.4333V13.6572H91.9424V12H97.4516V13.6572H102.961V12H108.47V13.6572H113.979V12H119.488V13.6572H124.998V12H130.507V13.6572H136.016V12H141.525V13.6572H147.034V12H152.543V13.6572H158.053V12H163.562V13.6572H169.071V12H174.58V13.6572H180.089V12H185.599V13.6572H191.108V12H196.617V13.6572H202.126V12H207.635V13.6572H213.145V12H218.654V13.6572H224.163V12H229.672V13.6572H235.181V12H240.69V13.6572H246.2V12H251.709V13.6572H257.218V12H262.727V13.6572H268.236V12H273.746V13.6572H279.255V12H284.764V13.6572H290.273V12H295.782V13.6572H301.291V12H306.801V13.6572H312.31V12H317.819V13.6572H323.328V12H328.837V13.6572H334.347V12H339.856V13.6572H345.365V12H350.874V13.6572H356.383V12H361.893V13.6572H367.402V12H372.911V13.6572H378.42V12H383.929V13.6572H389.438V12H394.948V13.6572H400.457V12H405.966V13.6572H411.475V12H416.984V13.6572H422.494V12H428.003V13.6572H433.512V12H439.021V13.6572H444.53V12H450.04V13.6572H455.549V12H461.058V13.6572H466.567V12H472.076V13.6572H477.586V12H483.095V13.6572H488.604V12H494.113V13.6572H499.622V12H505.132V13.6572H510.641V12H516.15V13.6572H518.904C519.811 13.6572 520.702 13.716 521.576 13.83L521.79 12.1868C523.739 12.4409 525.608 12.949 527.362 13.6766L526.728 15.2074C528.388 15.8961 529.939 16.7978 531.346 17.879L532.356 16.565C533.887 17.7412 535.259 19.1135 536.435 20.6441L535.121 21.6539C536.202 23.0608 537.104 24.6117 537.793 26.2724L539.323 25.6376C540.051 27.3923 540.559 29.2611 540.813 31.2097L539.17 31.424C539.284 32.2976 539.343 33.1893 539.343 34.0955V35.5478H541V38.4522H539.343V39.9045C539.343 40.8107 539.284 41.7024 539.17 42.576L540.813 42.7903C540.559 44.7389 540.051 46.6077 539.323 48.3624L537.793 47.7276C537.104 49.3883 536.202 50.9392 535.121 52.3461L536.435 53.3559C535.259 54.8866 533.887 56.2588 532.356 57.435L531.346 56.121C529.939 57.2022 528.388 58.104 526.728 58.7926L527.362 60.3234C525.608 61.051 523.739 61.5591 521.79 61.8132L521.576 60.17C520.702 60.284 519.811 60.3428 518.904 60.3428H516.149V62H510.64V60.3428H505.131V62H499.622V60.3428H494.113V62H488.604V60.3428H483.094V62H477.585V60.3428H472.076V62H466.567V60.3428H461.058V62H455.548V60.3428H450.039V62H444.53V60.3428H439.021V62H433.512V60.3428H428.002V62H422.493V60.3428H416.984V62H411.475V60.3428H405.966V62H400.457V60.3428H394.947V62H389.438V60.3428H383.929V62H378.42V60.3428H372.911V62H367.401V60.3428H361.892V62H356.383V60.3428H350.874V62H345.365V60.3428H339.856V62H334.346V60.3428H328.837V62H323.328V60.3428H317.819V62H312.31V60.3428H306.8V62H301.291V60.3428H295.782V62H290.273V60.3428H284.764V62H279.254V60.3428H273.745V62H268.236V60.3428H262.727V62H257.218V60.3428H251.709V62H246.199V60.3428H240.69V62H235.181V60.3428H229.672V62H224.163V60.3428H218.653V62H213.144V60.3428H207.635V62H202.126V60.3428H196.617V62H191.107V60.3428H185.598V62H180.089V60.3428H174.58V62H169.071V60.3428H163.562V62H158.052V60.3428H152.543V62H147.034V60.3428H141.525V62H136.016V60.3428H130.506V62H124.997V60.3428H119.488V62H113.979V60.3428H108.47V62H102.96V60.3428H97.4512V62H91.9421V60.3428H86.4329V62H80.9237V60.3428H75.4145V62H69.9053V60.3428H64.3961V62H58.8869V60.3428H53.3777V62H47.8685V60.3428H42.3593V62H36.8501V60.3428H34.0955C33.1893 60.3428 32.2976 60.284 31.424 60.17L31.2097 61.8132C29.2611 61.5591 27.3923 61.051 25.6376 60.3234L26.2724 58.7926C24.6117 58.104 23.0608 57.2022 21.6539 56.1211L20.6441 57.4351C19.1134 56.2588 17.7412 54.8866 16.565 53.3559L17.8789 52.3461C16.7978 50.9392 15.896 49.3883 15.2074 47.7276L13.6766 48.3624Z" stroke="#FFAEBE" stroke-width="3.31433" stroke-dasharray="5.52 5.52"/>
</g>
<defs>
<filter id="filter0_d_0_231" x="0.952232" y="0.952232" width="551.096" height="72.0955" filterUnits="userSpaceOnUse" color-interpolation-filters="sRGB">
<feFlood flood-opacity="0" result="BackgroundImageFix"/>
<feColorMatrix in="SourceAlpha" type="matrix" values="0 0 0 0 0 0 0 0 0 0 0 0 0 0 0 0 0 0 127 0" result="hardAlpha"/>
<feOffset/>
<feGaussianBlur stdDeviation="5.52388"/>
<feComposite in2="hardAlpha" operator="out"/>
<feColorMatrix type="matrix" values="0 0 0 0 0 0 0 0 0 0 0 0 0 0 0 0 0 0 0.25 0"/>
<feBlend mode="normal" in2="BackgroundImageFix" result="effect1_dropShadow_0_231"/>
<feBlend mode="normal" in="SourceGraphic" in2="effect1_dropShadow_0_231" result="shape"/>
</filter>
</defs>
</svg>
