<svg width="1029" height="143" viewBox="0 0 1029 143" fill="none" xmlns="http://www.w3.org/2000/svg">
<g filter="url(#filter0_d_108_286)">
<rect x="2" width="1025" height="133" rx="20" fill="#FE6784"/>
</g>
<path style="mix-blend-mode:multiply" fill-rule="evenodd" clip-rule="evenodd" d="M140.39 124.933C342.31 124.027 804.948 123.489 987.55 124.933C991.896 125.095 996.433 124.964 1000.24 124.566C1003.34 124.076 1003.06 123.122 1003.2 122.412C1003.2 119.963 1004.19 117.27 1003.2 115.36L963.58 114.846L1003.2 113.23C999.536 100.172 996.998 87.0329 995.588 73.8118L974.155 72.5142L995.447 71.2655C993.755 52.4867 1001.65 34.932 1005.46 16.2021C995.344 11.9095 982.729 7.80757 967.81 3.96037C966.557 3.60299 964.797 3.30732 962.699 3.10159C960.601 2.89585 958.234 2.7869 955.824 2.78516C875.028 4.03382 197.074 5.42939 51.557 4.15625C47.8173 4.15625 44.2308 4.41419 41.5864 4.87335C38.9421 5.3325 37.4564 5.95525 37.4564 6.6046C36.6104 12.1134 40.1356 15.7125 41.2636 20.9519L56.9152 22.6658L49.8649 24.2817L51.134 25.5303L42.2506 26.6076C45.6348 46.1944 45.3058 65.6751 41.2636 85.0498L53.108 86.1025L47.1858 87.9878L63.8245 89.4568L39.9945 90.5096C38.1615 98.2953 31.2522 106.13 30.9702 113.695C62.6397 118.75 100.127 122.581 140.954 124.933H140.39Z" fill="url(#paint0_radial_108_286)"/>
<path fill-rule="evenodd" clip-rule="evenodd" d="M140.954 121.506C170.988 122.779 902.383 122.143 1018.01 120.747C1017.02 118.299 1016.17 115.63 1015.33 113.059L974.014 112.472L1014.76 110.905C1010.91 98.4343 1008.28 85.907 1006.87 73.3224L984.871 72.0738L1006.59 70.8985C1004.89 52.9766 1003.77 22.2254 1006.87 4.25447H957.093C949.902 3.71583 142.505 4.74412 24.2018 5.50311C26.1759 11.2812 27.821 17.0512 29.137 22.8129L45.0706 24.4534L37.8794 25.9958L39.2894 27.171L30.1241 28.1993C33.6962 46.8558 33.3672 65.4306 29.137 83.9238L41.2635 84.9521L35.2003 86.7394L52.2619 88.1594L27.868 89.1633C25.8939 96.8348 23.2618 104.498 19.9717 112.153L140.954 121.408V121.506Z" fill="url(#paint1_linear_108_286)"/>
<path style="mix-blend-mode:multiply" fill-rule="evenodd" clip-rule="evenodd" d="M140.954 121.505L19.8306 112.251C33.7891 109.825 49.4734 107.719 66.5033 105.983C71.4385 105.983 128.405 119.596 140.954 121.505Z" fill="url(#paint2_radial_108_286)"/>
<path fill-rule="evenodd" clip-rule="evenodd" d="M59.3121 108.138C85.0759 112.853 112.332 117.316 140.954 121.506C132.071 121.506 19.8306 113.793 19.8306 112.251C32.1612 110.653 45.3887 109.275 59.3121 108.138Z" fill="url(#paint3_linear_108_286)"/>
<path style="mix-blend-mode:screen" fill-rule="evenodd" clip-rule="evenodd" d="M956.388 11.1827C962.592 13.6311 989.101 15.3449 1005.32 16.0794H1007.01C1008.21 16.3958 1009.11 16.7428 1009.69 17.1078C1009.13 17.0898 1008.55 17.0898 1008 17.1078C987.832 15.5163 967.668 13.9739 948.209 12.2111C952.022 9.68035 954.988 7.11345 957.093 4.52323C957.554 4.50137 958.041 4.50137 958.503 4.52323V4.67013C954.257 6.78075 953.62 9.05964 956.67 11.2317L956.388 11.1827Z" fill="url(#paint4_radial_108_286)"/>
<defs>
<filter id="filter0_d_108_286" x="0" y="0" width="1029" height="143" filterUnits="userSpaceOnUse" color-interpolation-filters="sRGB">
<feFlood flood-opacity="0" result="BackgroundImageFix"/>
<feColorMatrix in="SourceAlpha" type="matrix" values="0 0 0 0 0 0 0 0 0 0 0 0 0 0 0 0 0 0 127 0" result="hardAlpha"/>
<feOffset dy="8"/>
<feGaussianBlur stdDeviation="1"/>
<feComposite in2="hardAlpha" operator="out"/>
<feColorMatrix type="matrix" values="0 0 0 0 0 0 0 0 0 0 0 0 0 0 0 0 0 0 0.25 0"/>
<feBlend mode="normal" in2="BackgroundImageFix" result="effect1_dropShadow_108_286"/>
<feBlend mode="normal" in="SourceGraphic" in2="effect1_dropShadow_108_286" result="shape"/>
</filter>
<radialGradient id="paint0_radial_108_286" cx="0" cy="0" r="1" gradientUnits="userSpaceOnUse" gradientTransform="translate(499.39 83.0911) scale(893.833 155.201)">
<stop stop-color="#706F6F"/>
<stop offset="1" stop-color="white"/>
</radialGradient>
<linearGradient id="paint1_linear_108_286" x1="518.99" y1="122.192" x2="518.99" y2="4.20549" gradientUnits="userSpaceOnUse">
<stop stop-color="#FFF7ED"/>
<stop offset="1" stop-color="#FFFAF4"/>
</linearGradient>
<radialGradient id="paint2_radial_108_286" cx="0" cy="0" r="1" gradientUnits="userSpaceOnUse" gradientTransform="translate(61.0041 123.66) scale(142.133 24.6794)">
<stop stop-color="#A48A7B"/>
<stop offset="1" stop-color="white"/>
</radialGradient>
<linearGradient id="paint3_linear_108_286" x1="78.9118" y1="117.515" x2="79.5156" y2="109.324" gradientUnits="userSpaceOnUse">
<stop stop-color="#BF9F7E"/>
<stop offset="1" stop-color="#EDD6B9"/>
</linearGradient>
<radialGradient id="paint4_radial_108_286" cx="0" cy="0" r="1" gradientUnits="userSpaceOnUse" gradientTransform="translate(1001.23 7.04503) scale(75.5787 13.1232)">
<stop/>
<stop offset="1" stop-color="#A3805F"/>
</radialGradient>
</defs>
</svg>
