<svg width="185" height="101" viewBox="0 0 185 101" fill="none" xmlns="http://www.w3.org/2000/svg">
<path d="M72.6803 100.961C76.5065 100.758 80.2644 99.8657 83.7728 98.3274C86.8492 96.9995 89.756 95.3097 92.4315 93.2937C94.4127 94.8936 96.6632 96.1284 99.0777 96.9404C101.739 97.9155 104.544 98.4421 107.378 98.4988C112.851 98.5348 118.198 96.8561 122.667 93.6989C125.2 92.0617 127.311 89.8514 128.829 87.2471C128.86 87.2067 128.876 87.1574 128.876 87.1069C128.876 87.0563 128.86 87.0071 128.829 86.9666C132.306 87.8592 135.848 88.4741 139.423 88.8055C147.718 89.5926 156.089 88.7994 164.088 86.4679C171.171 84.3952 178.426 80.7642 182.295 74.1877C184.109 71.0024 185.018 67.3829 184.925 63.7195C184.831 60.056 183.738 56.4875 181.764 53.3986C179.779 50.4879 177.044 48.1666 173.848 46.6799C170.651 45.1932 167.112 44.5962 163.605 44.9521C162.921 45.0397 162.247 45.191 161.592 45.404C162.128 41.9639 161.903 38.4481 160.933 35.1041C159.963 31.7601 158.27 28.6691 155.976 26.0487C153.486 23.2931 150.364 21.1826 146.877 19.8986C143.39 18.6146 139.644 18.1956 135.959 18.6775C133.851 18.93 131.785 19.4538 129.812 20.2359C128.22 20.8495 126.726 21.695 125.381 22.7449C124.152 17.8367 121.426 13.4312 117.581 10.1374C112.687 6.06176 106.897 3.1996 100.685 1.78438C88.5312 -1.33242 74.7085 -0.818156 64.3492 6.97385C59.3712 10.5765 55.724 15.7208 53.9744 21.6072C53.9554 21.6318 53.9451 21.6619 53.9451 21.693C53.9451 21.724 53.9554 21.7541 53.9744 21.7787C43.4123 21.2488 32.5694 22.2929 22.8654 26.7032C14.0507 30.7239 6.28125 37.5341 2.49014 46.7287C0.538325 51.2922 -0.285728 56.2577 0.087541 61.2062C0.504312 65.7304 2.03152 70.0821 4.53391 73.876C9.6713 81.273 17.1675 86.7118 25.7985 89.3042C34.5196 92.1093 43.7399 92.5145 52.8667 92.2652C53.4737 93.2271 54.2143 94.0981 55.0665 94.8521C56.0563 95.7896 57.1382 96.625 58.2959 97.3456C59.4426 98.0599 60.6483 98.6751 61.8998 99.1845C65.325 100.539 69.001 101.145 72.6803 100.961Z" fill="#AAAAAA"/>
<path d="M180.984 72.0683C177.864 78.6292 171.093 82.3694 164.478 84.5356C157.006 86.9161 149.152 87.8729 141.326 87.3563C133.504 86.8827 125.833 84.9922 118.688 81.7772L116.021 80.4993C115.506 80.2499 114.804 81.1694 115.35 81.4655C119.385 83.6017 123.658 85.2547 128.08 86.3901C128.011 86.405 127.947 86.4371 127.893 86.4836C126.237 88.3952 124.421 90.1626 122.464 91.7665C120.454 93.2938 118.224 94.5076 115.849 95.3664C110.826 97.1637 105.358 97.3057 100.248 95.7716C97.6694 94.9665 95.2091 93.8241 92.9308 92.3743C92.9872 92.3483 93.0371 92.3101 93.077 92.2626C93.1169 92.215 93.1458 92.1592 93.1615 92.0992C93.1773 92.0391 93.1796 91.9764 93.1682 91.9154C93.1569 91.8544 93.1321 91.7966 93.0958 91.7463C93.0595 91.6959 93.0124 91.6542 92.9581 91.6242C92.9037 91.5941 92.8434 91.5765 92.7814 91.5725C92.7194 91.5684 92.6573 91.5782 92.5995 91.6009C92.5417 91.6237 92.4897 91.659 92.4471 91.7042L92.1039 91.9535C91.9167 91.8289 91.6515 92.0782 91.7763 92.2652C87.1888 95.7704 81.8474 98.1607 76.175 99.2469C70.7081 100.178 65.0866 99.2445 60.2149 96.5976C58.9729 95.8934 57.807 95.0631 56.7358 94.1197C55.9018 93.331 55.1102 92.4987 54.3644 91.6263C56.2054 91.6263 58.0307 91.486 59.8561 91.3925C61.2602 91.3925 62.6799 91.2211 64.084 91.112C64.6457 91.112 64.8797 90.0367 64.2088 90.0679C53.2879 90.4886 42.367 91.2211 31.6333 88.7277C22.8713 86.9326 14.922 82.3639 8.96468 75.6994C6.21502 72.5105 4.23008 68.7369 3.16101 64.6659C2.02308 60.0056 2.11446 55.1302 3.42623 50.5156C4.80372 45.972 7.07534 41.7486 10.1079 38.0932C13.1405 34.4378 16.8731 31.4238 21.0869 29.2279C30.3384 24.1163 41.0253 22.4644 51.4938 22.6203C52.8199 22.6203 54.146 22.6203 55.4721 22.7761C55.8153 22.7761 56.0181 22.2307 55.6125 22.1995H54.7856C54.8476 22.1635 54.8967 22.109 54.9261 22.0437C58.4051 11.5089 68.2808 4.40255 78.9208 2.37663C85.2 1.27375 91.6378 1.45399 97.8452 2.90648C103.804 4.04517 109.462 6.40658 114.461 9.84137C117.103 11.6585 119.343 13.999 121.042 16.7174C122.741 19.4358 123.862 22.4741 124.336 25.6436C124.336 26.2825 125.428 26.0332 125.366 25.4565C125.303 24.8799 125.21 24.3033 125.101 23.7423C126.38 23.0254 127.597 22.1839 128.97 21.6073C130.603 20.8881 132.315 20.365 134.071 20.0489C137.631 19.4092 141.291 19.612 144.758 20.6411C148.081 21.6998 151.104 23.5342 153.575 25.9923C156.047 28.4503 157.896 31.4613 158.971 34.7758C160.241 38.4857 160.494 42.4674 159.704 46.308C159.595 46.9002 160.484 46.8846 160.578 46.308C160.635 46.0877 160.676 45.8638 160.703 45.6379C163.924 45.2739 167.186 45.6088 170.266 46.6196C173.473 47.7373 176.326 49.6839 178.535 52.2611C180.762 55.0006 182.173 58.3108 182.606 61.8134C183.04 65.3161 182.477 68.8697 180.984 72.0683Z" fill="white"/>
<g style="mix-blend-mode:multiply">
<path d="M178.535 52.3234C176.435 49.8758 173.752 47.9949 170.734 46.8534C172.683 49.1311 173.991 51.8845 174.525 54.8324C177.068 68.5464 164.385 76.8215 152.684 79.2214C139.844 81.8551 124.071 80.3591 113.259 72.3645C111.363 75.3695 108.349 77.4995 104.881 78.2864C102.377 78.7165 99.8041 78.503 97.4051 77.6661C95.006 76.8291 92.8596 75.3962 91.1678 73.5021C83.1176 82.6499 63.4132 78.0059 65.1293 65.0556C57.9561 68.3757 49.9923 69.6125 42.1486 68.6243C34.5066 67.6028 27.2291 64.7357 20.9465 60.2713C15.8761 56.7025 10.478 51.5754 10.556 44.921C10.556 40.0276 13.4267 35.4771 16.9213 31.8772C10.4087 36.38 5.64397 42.9827 3.42623 50.578C2.11446 55.1925 2.02308 60.068 3.16101 64.7283C4.23008 68.7993 6.21502 72.5729 8.96468 75.7618C14.8993 82.4177 22.8194 86.9907 31.5553 88.8056C42.2578 91.299 53.2567 90.5666 64.1308 90.1458C64.8017 90.1458 64.5677 91.1588 64.006 91.19C62.6019 91.299 61.1822 91.4081 59.7781 91.4705C57.9527 91.564 56.1274 91.6419 54.2864 91.7042C55.0596 92.552 55.8772 93.3583 56.7358 94.1198C57.8071 95.0631 58.9729 95.8934 60.2149 96.5976C65.0825 99.2074 70.6852 100.113 76.1282 99.169C81.8006 98.0828 87.142 95.6925 91.7295 92.1873C91.6047 92.0003 91.8699 91.751 92.0571 91.8757L92.4003 91.6263C92.4429 91.5811 92.4949 91.5458 92.5527 91.5231C92.6105 91.5003 92.6726 91.4906 92.7346 91.4946C92.7966 91.4986 92.8569 91.5163 92.9113 91.5463C92.9656 91.5764 93.0127 91.618 93.049 91.6684C93.0853 91.7187 93.1101 91.7765 93.1214 91.8375C93.1328 91.8985 93.1305 91.9613 93.1147 92.0213C93.099 92.0813 93.0701 92.1371 93.0302 92.1847C92.9903 92.2322 92.9404 92.2704 92.884 92.2964C95.1623 93.7463 97.6227 94.8886 100.201 95.6937C105.311 97.2278 110.779 97.0858 115.802 95.2886C118.177 94.4297 120.407 93.216 122.417 91.6886C124.374 90.0847 126.19 88.3173 127.846 86.4057C127.9 86.3593 127.964 86.3271 128.034 86.3122C123.611 85.1768 119.338 83.5238 115.303 81.3876C114.757 81.0915 115.459 80.1721 115.974 80.4214L118.657 81.6837C125.802 84.8988 133.473 86.7892 141.295 87.2628C149.121 87.7795 156.975 86.8226 164.447 84.4421C171.062 82.2915 177.864 78.5513 180.953 71.9749C182.419 68.7986 182.969 65.277 182.542 61.8056C182.115 58.3342 180.727 55.0506 178.535 52.3234Z" fill="#EDEDED"/>
</g>
</svg>
