<svg width="48" height="48" viewBox="0 0 48 48" fill="none" xmlns="http://www.w3.org/2000/svg">
<circle cx="24" cy="24" r="22.5" fill="#AA1070" stroke="#F8EBFD" stroke-width="3"/>
<circle cx="24.3636" cy="24.3641" r="20.3636" fill="#CD3F97"/>
<path d="M24 14.0005C18.48 14.0005 14 18.4805 14 24.0005C14 29.5205 18.48 34.0005 24 34.0005C29.52 34.0005 34 29.5205 34 24.0005C34 18.4805 29.52 14.0005 24 14.0005ZM24 29.0005C23.45 29.0005 23 28.5505 23 28.0005V24.0005C23 23.4505 23.45 23.0005 24 23.0005C24.55 23.0005 25 23.4505 25 24.0005V28.0005C25 28.5505 24.55 29.0005 24 29.0005ZM25 21.0005H23V19.0005H25V21.0005Z" fill="white"/>
</svg>
