<svg width="41" height="45" viewBox="0 0 41 45" fill="none" xmlns="http://www.w3.org/2000/svg">
<g clip-path="url(#clip0_108_822)">
<path d="M5.86219 43.9578C4.58902 43.9556 3.3686 43.4548 2.46833 42.5653C1.56806 41.6757 1.06135 40.4698 1.05911 39.2117V5.79236C1.05645 4.95875 1.27659 4.13925 1.69733 3.41671C2.11807 2.69418 2.72445 2.09424 3.45514 1.67759C4.18583 1.26095 5.01495 1.04237 5.85857 1.04395C6.70219 1.04554 7.53044 1.26722 8.25952 1.68661L37.5482 18.3984C38.2774 18.8141 38.883 19.4122 39.304 20.1326C39.725 20.853 39.9467 21.6702 39.9467 22.502C39.9467 23.3339 39.725 24.1511 39.304 24.8715C38.883 25.5918 38.2774 26.19 37.5482 26.6057L8.25952 43.3175C7.53213 43.7338 6.70704 43.9546 5.86643 43.9578H5.86219Z" fill="#AA1070"/>
<path d="M9.07591 39C7.9955 38.9983 6.95986 38.6132 6.19589 37.9292C5.43192 37.2451 5.00192 36.3178 5.00002 35.3503V9.65144C4.99777 9.01042 5.18458 8.38023 5.54162 7.82462C5.89866 7.269 6.41323 6.80766 7.03329 6.48726C7.65336 6.16687 8.35694 5.99879 9.07284 6.00001C9.78873 6.00122 10.4916 6.1717 11.1103 6.4942L35.9646 19.3453C36.5834 19.6649 37.0973 20.1249 37.4546 20.6788C37.8119 21.2328 38 21.8612 38 22.5009C38 23.1406 37.8119 23.769 37.4546 24.3229C37.0973 24.8769 36.5834 25.3368 35.9646 25.6565L11.1103 38.5076C10.493 38.8278 9.79284 38.9975 9.07951 39H9.07591Z" fill="#CD3F97"/>
<path d="M5.86205 2.09263C6.51721 2.09471 7.16018 2.26796 7.7257 2.59485L37.0144 19.2941C37.5826 19.6185 38.0543 20.085 38.3823 20.6467C38.7103 21.2083 38.883 21.8453 38.883 22.4937C38.883 23.1421 38.7103 23.7792 38.3823 24.3408C38.0543 24.9024 37.5826 25.3689 37.0144 25.6933L7.7257 42.4009C7.15806 42.7287 6.51278 42.9023 5.85533 42.9041C5.19787 42.9059 4.55162 42.7358 3.98217 42.4111C3.41272 42.0864 2.94033 41.6187 2.61291 41.0553C2.28548 40.492 2.11469 39.853 2.11785 39.2034V5.7924C2.11785 4.81115 2.5123 3.87011 3.21448 3.17627C3.91665 2.48243 4.86902 2.09263 5.86205 2.09263ZM5.86205 0C4.30804 0.00221423 2.81832 0.61318 1.71947 1.69899C0.620625 2.7848 0.00232072 4.25683 7.99022e-05 5.7924V39.2118C-0.00530611 40.2298 0.26169 41.2312 0.774079 42.1144C1.28647 42.9976 2.02604 43.7313 2.9178 44.2411C3.80957 44.751 4.82184 45.0189 5.85212 45.0176C6.8824 45.0164 7.89407 44.7461 8.78458 44.2341L38.0733 27.5265C38.9634 27.0183 39.7024 26.2877 40.2163 25.408C40.7301 24.5282 41.0006 23.5304 41.0006 22.5146C41.0006 21.4989 40.7301 20.501 40.2163 19.6213C39.7024 18.7416 38.9634 18.0109 38.0733 17.5028L8.78458 0.795186C7.89666 0.285719 6.8888 0.0158226 5.86205 0.0125425V0Z" fill="#F8EBFD"/>
<path style="mix-blend-mode:screen" fill-rule="evenodd" clip-rule="evenodd" d="M10.5 8.00006C12.5 9.00006 15 10.7591 16.6403 11.6781C19 13.0001 21.8137 14.6926 23.5 14.5001C25.7693 13.8707 21.5877 12.6277 20 11.5001C18.069 10.0961 15.9136 8.69938 13.5 8.00007C11.5 6.50008 8.24782 5.75936 10.5 8.00006Z" fill="url(#paint0_radial_108_822)"/>
</g>
<defs>
<radialGradient id="paint0_radial_108_822" cx="0" cy="0" r="1" gradientUnits="userSpaceOnUse" gradientTransform="translate(7.17558 32.7474) rotate(69.595) scale(62.4708 72.8156)">
<stop stop-color="#FFFBD9"/>
<stop offset="1"/>
</radialGradient>
<clipPath id="clip0_108_822">
<rect width="41" height="45" fill="white"/>
</clipPath>
</defs>
</svg>
